<?xml version="1.0" standalone="no"?>
<!DOCTYPE svg PUBLIC "-//W3C//DTD SVG 20010904//EN"
 "http://www.w3.org/TR/2001/REC-SVG-20010904/DTD/svg10.dtd">
<svg version="1.0" xmlns="http://www.w3.org/2000/svg"
 width="1280.000000pt" height="988.000000pt" viewBox="0 0 1280.000000 988.000000"
 preserveAspectRatio="xMidYMid meet">
<metadata>
Created by potrace 1.15, written by Peter Selinger 2001-2017
</metadata>
<g transform="translate(0.000000,988.000000) scale(0.100000,-0.100000)"
fill="#000000" stroke="none">
<path d="M6894 9866 c-67 -30 -102 -113 -114 -274 -9 -121 -32 -207 -56 -216
-25 -10 -52 12 -63 49 -10 37 -4 71 23 123 32 62 14 235 -30 283 -25 28 -62
23 -140 -16 -100 -50 -177 -114 -204 -170 -30 -62 -54 -75 -152 -84 -46 -4
-94 -13 -106 -20 -33 -18 -50 -64 -62 -172 -16 -133 -46 -266 -87 -383 -51
-147 -59 -154 -93 -71 -32 79 -56 95 -144 95 -93 0 -135 24 -195 109 -29 40
-61 72 -85 84 -35 18 -41 19 -65 6 -17 -9 -31 -31 -40 -59 -12 -38 -12 -55 2
-134 9 -50 20 -102 23 -116 12 -46 -20 -2 -81 110 -32 58 -72 125 -90 150 -57
78 -150 159 -222 193 -60 28 -78 32 -153 32 -72 0 -92 -4 -135 -27 -55 -29
-115 -88 -163 -159 -46 -69 -65 -73 -116 -28 -95 82 -216 20 -187 -96 16 -64
14 -92 -8 -98 -10 -2 -76 11 -147 30 -158 41 -214 40 -308 -9 -82 -43 -287
-246 -306 -302 -19 -60 -7 -129 50 -265 28 -68 49 -128 48 -132 -2 -5 -22 14
-45 43 -62 78 -113 125 -155 142 -33 14 -38 14 -52 0 -11 -11 -14 -26 -9 -59
8 -62 -5 -75 -79 -75 -123 0 -205 -75 -483 -440 -176 -232 -219 -309 -218
-390 1 -61 18 -92 133 -240 54 -69 111 -150 128 -180 35 -62 51 -133 33 -145
-30 -18 -72 13 -211 154 -120 122 -157 153 -213 181 -81 40 -150 46 -173 15
-9 -12 -13 -39 -12 -73 3 -59 -3 -67 -71 -104 -38 -21 -61 -70 -71 -157 -12
-90 -60 -159 -161 -226 -113 -75 -164 -121 -233 -207 -113 -141 -174 -296
-161 -407 13 -115 -22 -152 -224 -235 -304 -124 -473 -276 -455 -408 18 -130
-127 -411 -300 -584 -65 -65 -93 -85 -141 -103 -170 -63 -210 -125 -279 -431
-53 -239 -44 -359 33 -440 32 -34 44 -40 79 -40 47 0 90 28 336 216 205 156
285 190 356 149 61 -35 103 -11 159 90 43 76 60 95 82 95 10 0 49 -29 86 -64
87 -81 104 -89 182 -88 51 1 105 15 271 71 113 39 218 74 232 80 l26 10 -20
68 c-82 290 -98 411 -62 448 36 35 92 -1 292 -189 127 -118 185 -156 240 -156
43 0 64 35 77 129 14 101 24 106 115 57 180 -97 290 1 290 259 0 108 -24 222
-80 385 -23 65 -40 131 -38 145 l3 26 44 -37 c54 -47 109 -130 146 -221 54
-136 70 -166 105 -202 50 -51 97 -71 167 -71 69 0 156 38 211 91 51 50 46 94
-39 339 -76 220 -109 330 -109 367 0 67 66 -13 225 -272 83 -135 139 -185 207
-185 43 0 135 44 245 118 177 119 238 138 412 129 64 -4 161 -9 216 -13 132
-7 154 3 210 106 56 104 66 104 186 0 52 -45 107 -89 122 -97 42 -21 86 -13
111 20 19 27 21 40 19 190 -1 118 -8 201 -25 305 -14 78 -21 142 -18 142 4 0
28 -66 54 -147 125 -389 200 -538 333 -664 101 -97 122 -104 303 -104 152 0
156 -1 220 -31 36 -17 88 -47 116 -67 115 -83 221 -112 299 -83 117 45 116 89
-15 642 -100 420 -132 583 -133 693 -2 100 7 120 39 82 29 -33 61 -123 145
-406 193 -646 231 -757 278 -799 32 -29 93 -32 145 -7 77 38 132 148 157 316
12 80 12 330 1 452 -4 46 -5 79 -1 75 4 -4 21 -56 38 -117 70 -238 148 -335
273 -339 44 -1 53 3 78 30 55 63 49 224 -20 492 -41 164 -90 402 -109 537 -55
394 -25 362 79 -85 62 -265 160 -691 160 -696 0 -2 73 32 163 77 379 189 400
234 358 751 -23 276 -27 423 -12 433 21 12 96 -255 196 -695 25 -112 48 -206
50 -209 6 -6 178 70 297 131 160 81 271 200 318 339 19 56 21 76 15 169 -9
147 15 248 108 453 20 42 41 77 48 77 13 0 11 -29 -22 -294 -23 -194 -25 -382
-4 -453 44 -149 146 -205 375 -207 225 -1 348 59 441 215 56 93 65 100 83 58
8 -19 22 -60 32 -92 21 -67 53 -107 86 -107 13 0 49 9 81 20 74 26 187 26 287
0 158 -42 266 -18 350 77 50 57 75 102 160 286 70 151 114 222 131 212 18 -12
9 -93 -16 -147 -27 -57 -32 -116 -14 -166 8 -24 20 -34 49 -43 50 -15 135 2
445 91 288 82 343 94 433 88 60 -3 76 -8 123 -41 89 -61 202 -70 369 -30 91
22 199 74 239 116 28 30 33 42 33 81 -3 111 -146 310 -316 440 -72 55 -102 72
-256 142 -47 21 -150 73 -230 116 -165 88 -265 124 -382 139 -131 16 -193 51
-255 144 -45 68 -74 87 -145 96 -69 8 -97 28 -145 99 -59 90 -82 110 -124 110
-20 0 -66 -14 -102 -31 -43 -19 -78 -29 -99 -27 -31 3 -36 9 -73 85 -72 149
-147 203 -281 203 -90 0 -120 12 -210 85 -30 25 -72 54 -93 65 -78 39 -240 99
-396 145 -268 78 -388 123 -554 204 -133 65 -175 68 -268 15 -75 -41 -97 -39
-120 14 -44 104 -54 122 -85 145 -67 52 -299 108 -455 111 -58 1 -77 -3 -100
-20 -68 -50 -138 -223 -155 -384 -14 -134 -54 -207 -79 -143 -13 33 -7 113 22
291 24 150 29 302 11 324 -22 28 -126 67 -222 85 -129 23 -351 24 -402 1 -20
-9 -39 -26 -43 -37 -12 -38 -42 -23 -102 51 -32 39 -70 80 -84 90 -34 25 -96
32 -135 14z m-2420 -1300 c8 -52 -3 -86 -21 -64 -16 19 -33 87 -33 128 l1 35
23 -27 c13 -15 26 -46 30 -72z m1284 -2223 c33 -80 55 -212 32 -198 -11 7 -55
143 -65 203 -9 57 7 54 33 -5z m-3331 -409 c39 -19 83 -78 83 -111 0 -18 -6
-23 -24 -23 -29 0 -112 55 -139 92 -39 52 7 76 80 42z"/>
<path d="M12568 6731 c-99 -39 -280 -175 -445 -334 -126 -122 -175 -191 -183
-255 -4 -42 -8 -47 -33 -50 -15 -2 -68 6 -116 17 -215 51 -462 1 -573 -116
-38 -39 -78 -63 -106 -63 -11 0 -45 12 -77 26 -51 24 -66 26 -134 21 -136 -9
-217 -54 -299 -166 -13 -17 -35 -34 -48 -37 -14 -4 -72 4 -129 17 -95 21 -112
22 -182 11 -45 -7 -104 -25 -140 -42 -60 -30 -122 -87 -124 -115 -1 -8 -2 -21
-3 -27 -1 -7 4 -32 12 -55 7 -23 12 -56 10 -75 -3 -31 -5 -33 -43 -32 -31 0
-61 14 -129 57 -99 63 -132 72 -215 64 -103 -11 -299 -90 -363 -145 -106 -93
-88 -196 72 -416 39 -55 79 -111 88 -125 l17 -26 -30 22 c-53 37 -166 156
-186 195 -10 20 -28 42 -40 48 -44 24 -131 -34 -144 -96 -3 -13 -7 -35 -10
-49 -9 -40 -29 -40 -102 3 -92 54 -117 59 -147 29 -19 -20 -25 -38 -31 -112
-4 -49 -11 -99 -16 -112 -12 -33 -59 -52 -153 -62 -110 -11 -169 -39 -207 -99
-16 -25 -29 -50 -29 -55 0 -20 -43 -67 -61 -67 -11 0 -52 17 -92 37 -65 34
-80 37 -147 37 -166 -1 -335 -123 -347 -251 -5 -42 4 -72 65 -228 84 -217 146
-395 139 -401 -3 -3 -36 55 -75 129 -184 352 -251 419 -386 388 -148 -33 -326
-86 -322 -95 98 -240 329 -853 333 -888 6 -52 -9 -103 -34 -113 -44 -16 -86
75 -177 385 -30 102 -69 223 -86 270 -80 218 -179 367 -259 391 -44 13 -45 13
-200 -84 -121 -76 -144 -105 -192 -238 -17 -49 -35 -89 -39 -89 -4 0 -19 43
-34 97 -42 151 -75 180 -186 170 -134 -12 -253 -102 -320 -242 -52 -108 -69
-197 -80 -404 -10 -175 -20 -245 -38 -263 -19 -19 -47 -3 -67 37 -27 55 -26
239 4 430 12 82 21 188 21 256 0 104 -2 120 -23 150 -12 19 -44 45 -72 59 -46
23 -60 25 -190 25 -117 -1 -161 -5 -265 -29 -163 -37 -288 -41 -322 -10 -51
47 -95 54 -183 30 -75 -21 -124 -44 -188 -89 -55 -38 -78 -67 -140 -172 -23
-39 -30 -45 -42 -35 -8 7 -15 19 -15 26 0 35 -43 103 -72 115 -104 43 -417
-93 -580 -252 -67 -66 -78 -81 -78 -110 0 -44 -23 -77 -66 -95 -43 -18 -73
-18 -80 1 -4 9 19 64 49 124 64 123 80 179 65 222 -12 34 -40 44 -103 36 -64
-9 -134 -43 -305 -151 -187 -118 -377 -212 -525 -261 -213 -70 -228 -91 -325
-465 -33 -129 -49 -177 -53 -160 -3 14 -18 108 -32 210 -32 232 -41 271 -69
312 -30 45 -84 73 -201 102 -199 50 -255 45 -302 -25 -35 -53 -61 -58 -126
-24 -199 106 -182 100 -305 101 l-114 1 -41 46 -42 45 -80 0 c-57 0 -117 9
-209 32 -112 28 -135 30 -167 21 -73 -22 -165 -161 -176 -265 -5 -46 -2 -55
21 -83 103 -122 549 -380 795 -459 129 -41 204 -84 320 -182 106 -89 148 -104
203 -73 20 11 42 21 47 21 22 0 52 -47 76 -121 44 -131 125 -219 270 -291 150
-75 286 -183 515 -408 171 -168 279 -258 343 -285 43 -18 97 -19 167 -4 107
23 158 -13 250 -176 75 -132 130 -199 192 -235 108 -61 163 -25 170 113 1 37
6 67 9 67 4 0 15 -21 24 -47 61 -173 163 -314 295 -413 91 -67 149 -89 237
-87 55 0 73 -5 165 -51 57 -29 171 -100 253 -158 221 -155 368 -234 507 -271
60 -16 123 -19 283 -13 81 3 137 -15 245 -80 105 -64 199 -93 300 -94 63 0 93
4 118 17 43 23 72 72 72 122 0 64 -27 224 -64 383 -19 81 -37 170 -41 198 -7
54 3 75 24 50 19 -23 69 -168 100 -293 58 -227 106 -330 200 -423 90 -90 173
-102 247 -38 72 63 97 150 114 398 6 85 12 155 13 157 2 1 23 -66 46 -150 98
-343 181 -430 370 -386 117 27 251 127 272 202 14 51 16 197 7 377 l-8 135 20
-65 c99 -312 120 -357 189 -398 40 -23 56 -27 121 -26 90 2 254 41 334 80 85
41 134 88 170 163 41 85 56 86 114 4 64 -93 91 -108 182 -107 166 2 334 86
390 194 73 143 52 345 -94 920 -24 96 -43 176 -41 178 2 2 20 -48 40 -110 96
-291 201 -573 250 -674 59 -122 97 -164 147 -164 66 0 105 51 242 310 48 91
98 176 112 190 l25 25 27 -32 c15 -17 40 -50 55 -73 72 -108 162 -80 240 75
64 127 87 275 87 548 0 124 4 206 9 202 5 -3 24 -48 41 -99 17 -52 45 -114 62
-137 l31 -43 24 30 c29 36 255 490 318 639 132 312 136 382 47 735 -27 105
-45 187 -41 183 3 -5 23 -46 44 -93 52 -117 148 -310 181 -361 l27 -43 27 31
c42 47 112 177 318 593 104 212 221 435 258 495 140 229 153 262 165 424 9
123 34 194 74 215 31 17 96 76 143 131 68 78 201 281 246 375 38 79 41 91 41
170 0 47 -9 129 -20 182 -10 54 -15 101 -11 105 4 4 18 -6 31 -23 104 -133
220 -13 475 491 79 155 124 257 139 313 57 213 29 365 -76 408 -42 18 -68 17
-125 -5z m-4137 -2413 c59 -44 205 -231 293 -378 81 -135 117 -240 81 -240
-49 0 -286 320 -381 514 -60 122 -58 152 7 104z m-223 -2650 c98 -255 249
-835 223 -861 -10 -10 -50 37 -87 99 -96 164 -271 864 -227 908 15 15 52 -45
91 -146z m-3172 -232 c36 -36 42 -67 22 -111 -25 -54 -73 -16 -89 73 -16 81 9
96 67 38z"/>
</g>
</svg>
